# xmcd
# 
# Track frame offsets:
#     150
#     30859
#     55907
#     68882
#     116247
#     156012
#     196259
#     223944
#     254069
#     282149
#     315734
# 
# Disc length: 4621
# 
# Revision: 1
# Processed by: cddbd v1.5.2PL0 Copyright (c) Steve Scherf et al.
# Submitted via: fre:ac v1.0.31
# 
DISCID=a3120b0b
DTITLE=Various Artist - 06 - Detroit - New York Junction
DYEAR=1956
DGENRE=Jazz
TTITLE0=Thad Jones - Blue room
TTITLE1=Thad Jones - Tarriff
TTITLE2=Thad Jones - Little girl blue
TTITLE3=Thad Jones - Scratch
TTITLE4=Thad Jones - Zec
TTITLE5=Jutta Hipp With Zoot Sims - Just blues
TTITLE6=Jutta Hipp With Zoot Sims - Violets for your furs
TTITLE7=Jutta Hipp With Zoot Sims - Down home
TTITLE8=Jutta Hipp With Zoot Sims - Almost like being in love
TTITLE9=Jutta Hipp With Zoot Sims - Wee-dot
TTITLE10=Jutta Hipp With Zoot Sims - Too close for comfort
EXTD=YEAR: 1956
EXTT0=
EXTT1=
EXTT2=
EXTT3=
EXTT4=
EXTT5=
EXTT6=
EXTT7=
EXTT8=
EXTT9=
EXTT10=
PLAYORDER=
